<svg width="283" height="58" viewBox="0 0 283 58" fill="none" xmlns="http://www.w3.org/2000/svg">
<path d="M13.2281 1.58284V2.99298L13.1055 14.0358L13.2281 29.0905H0.882829L1.01043 12.6289L0.864624 2.57377L0.882829 1.57952L13.2281 1.58284ZM42.6315 14.9538V11.5932L42.5701 6.2624L42.5436 3.82322L42.5088 2.29705C42.5088 1.57953 42.7574 1.21161 43.2512 1.21161C43.5462 1.21161 43.7483 1.29617 43.8643 1.46851C43.9803 1.64084 44.03 1.94906 44.03 2.42465V2.70299C44.03 2.98635 44.0135 3.44534 44.0135 4.0916L43.9522 10.8774L43.9074 17.0948L43.9605 23.6419L44.03 30.2024C41.2605 28.4701 37.2117 26.0767 31.8836 23.0222C26.5555 19.9676 22.2361 17.5665 18.9252 15.8188L18.9484 16.8015L19.1555 27.2046L19.1738 28.5966C19.1738 29.175 18.9069 29.4616 18.3634 29.4616C17.8199 29.4616 17.525 29.1053 17.525 28.3978L17.5432 26.9876L17.5664 24.7124L17.6476 14.3805L17.525 0.469238C22.969 3.83754 31.3357 8.66576 42.6248 14.9538H42.6315ZM73.0324 14.9538V11.5932L72.9677 6.2624L72.9412 3.82322L72.9064 2.29705C72.9064 1.57953 73.155 1.21161 73.6488 1.21161C73.9471 1.21161 74.1459 1.29617 74.2619 1.46851C74.3779 1.64084 74.4276 1.94906 74.4276 2.42465V2.70299C74.4193 2.98635 74.416 3.44534 74.416 4.0916L74.3497 10.8774L74.305 17.0948L74.358 23.6419L74.4276 30.2024C71.6658 28.4701 67.6181 26.0767 62.2845 23.0222C56.9509 19.9676 52.632 17.5665 49.3277 15.8188L49.346 16.8015L49.5531 27.2046L49.5763 28.5966C49.5763 29.175 49.3079 29.4616 48.761 29.4616C48.2142 29.4616 47.9225 29.1053 47.9225 28.3978L47.9457 26.9876L47.964 24.7124L48.0485 14.3805L47.9225 0.469238C53.3655 3.83754 61.7332 8.66576 73.0257 14.9538H73.0324ZM92.3324 0.760927C94.4494 0.760622 96.5413 1.21964 98.4636 2.10642C101.296 3.37221 103.634 5.53419 105.117 8.25924C106.333 10.4736 106.96 12.9629 106.94 15.4891C106.922 18.1309 106.18 20.7171 104.795 22.9668C103.41 25.2164 101.434 27.0432 99.0834 28.2486C96.9974 29.3457 94.676 29.9189 92.3192 29.919C89.8287 29.9201 87.3817 29.2663 85.2235 28.0233C82.2607 26.3596 80.1462 24.0219 78.8802 21.0105C78.0074 18.9787 77.6133 16.7734 77.7282 14.5651C77.8431 12.3567 78.464 10.2044 79.543 8.27413C81.0168 5.56662 83.3294 3.41046 86.1333 2.12964C88.0701 1.22614 90.182 0.76001 92.3192 0.764245L92.3324 0.760927ZM90.7715 2.12139L90.6455 15.2339L90.7482 26.1425L90.7715 28.5966C91.2022 28.6762 91.6392 28.7172 92.0772 28.7192C95.0357 28.7192 97.6804 27.8995 100.011 26.2601C102.086 24.8214 103.691 22.8045 104.628 20.4603C105.291 18.8289 105.632 17.0845 105.632 15.3234C105.645 13.0374 105.064 10.7873 103.947 8.79278C102.642 6.39085 100.598 4.47333 98.1173 3.32439C96.2676 2.44393 94.2435 1.99085 92.1949 1.99872C91.7176 1.99886 91.2413 2.04104 90.7715 2.12471V2.12139ZM110.022 24.429C110.264 24.429 110.547 24.6097 110.869 24.9726C111.905 26.0906 113.158 26.9869 114.551 27.6073C115.899 28.2434 117.368 28.5825 118.859 28.6016C120.428 28.6016 121.212 28.1277 121.212 27.1715C121.212 26.5684 120.937 25.8873 120.394 25.1217C119.85 24.3561 118.538 22.8664 116.451 20.6294C113.836 17.7957 112.091 15.694 111.215 14.3241C110.067 12.5113 109.492 10.7846 109.488 9.1441C109.488 6.67725 110.589 4.65559 112.791 3.07915C114.945 1.53474 117.606 0.759228 120.78 0.759228C122.886 0.736921 124.971 1.19427 126.874 2.09655C127.521 2.41612 128.123 2.82067 128.662 3.29955C129.159 3.75194 129.421 4.13807 129.421 4.44794C129.418 4.52721 129.397 4.60473 129.36 4.67474C129.323 4.74475 129.27 4.80543 129.206 4.85226C129.095 4.96994 128.943 5.039 128.782 5.04443C128.556 5.04443 128.215 4.83733 127.774 4.42472C126.943 3.68407 125.977 3.11221 124.927 2.7411C123.846 2.31593 122.697 2.09132 121.535 2.07826C120.862 2.07826 120.319 2.21917 119.896 2.51082C119.704 2.62792 119.545 2.7924 119.435 2.98853C119.324 3.18465 119.266 3.40584 119.265 3.63097C119.265 4.18112 119.525 4.8473 120.042 5.64601C120.559 6.44473 121.447 7.48539 122.694 8.80774C126.635 13.0057 129.051 15.8365 129.94 17.3003C130.861 18.8469 131.322 20.3383 131.322 21.7744C131.321 22.9967 130.98 24.1945 130.338 25.2344C129.662 26.3417 128.721 27.2631 127.6 27.9155C125.376 29.2412 122.66 29.904 119.451 29.904C116.508 29.904 113.908 29.1401 111.662 27.614C110.096 26.5435 109.311 25.7017 109.311 25.0985C109.312 25.0103 109.331 24.9233 109.367 24.8429C109.404 24.7625 109.456 24.6904 109.521 24.6312C109.585 24.5626 109.661 24.5082 109.747 24.4713C109.833 24.4345 109.925 24.4161 110.018 24.4174L110.022 24.429ZM147.268 1.58284V2.99298L147.145 14.0358L147.268 29.0905H134.923L135.049 12.6289L134.903 2.57377L134.923 1.57952L147.268 1.58284ZM164.326 1.58284L164.265 5.79675L164.204 12.4997L164.215 17.398L164.283 27.7714L165.73 27.7896L174.332 27.6488L175.901 27.6255C176.69 27.6255 177.084 27.8675 177.084 28.3481C177.084 28.7723 176.871 29.0059 176.444 29.049C176.345 29.0639 176.035 29.0755 175.515 29.0905H151.984L152.034 21.4347L152.067 16.7402L152.11 11.4209L152.049 3.31444L152.067 1.58284H164.326ZM191.925 1.58284V2.99298L191.802 14.0358L191.925 29.0905H179.58L179.702 12.6289L179.56 2.57377L179.58 1.57952L191.925 1.58284ZM208.405 2.14121L208.282 16.4154L208.405 28.5353C208.979 28.6212 209.558 28.6688 210.138 28.6778C211.517 28.668 212.884 28.4289 214.185 27.9702C215.502 27.5348 216.74 26.889 217.852 26.0579C218.632 25.4383 219.343 24.7361 219.973 23.9634C220.649 23.1759 221.239 22.3181 221.733 21.4048C221.993 20.9193 222.269 20.679 222.561 20.679C223.005 20.679 223.224 20.8613 223.224 21.2408C223.224 21.6203 222.893 22.3262 222.23 23.2907C221.587 24.2237 220.855 25.0917 220.044 25.8823C218.343 27.5247 216.256 28.7109 213.974 29.3307C212.663 29.7084 211.307 29.9053 209.942 29.9157C207.99 29.901 206.061 29.4888 204.274 28.7043C201.238 27.4273 198.926 25.4073 197.337 22.6444C196.331 20.9035 195.695 18.9738 195.469 16.976C195.243 14.9782 195.431 12.9553 196.022 11.0336C196.613 9.11184 197.594 7.33265 198.904 5.80719C200.213 4.28173 201.824 3.04276 203.634 2.16775C205.602 1.22417 207.76 0.743001 209.942 0.760927C213.817 0.760927 217.164 2.07108 219.984 4.69149C221.323 5.94259 221.998 6.84571 221.998 7.39089C221.994 7.46864 221.975 7.54488 221.941 7.61477C221.907 7.68466 221.858 7.7467 221.799 7.79691C221.677 7.91097 221.517 7.97489 221.35 7.97588C221.083 7.97588 220.768 7.71572 220.39 7.19209C219.205 5.56737 217.634 4.26368 215.818 3.39899C213.959 2.46988 211.907 1.98917 209.828 1.99541C209.354 1.99334 208.88 2.04221 208.416 2.14121H208.405ZM238.936 0.760927C241.053 0.76099 243.145 1.21999 245.068 2.10642C247.9 3.37221 250.238 5.53419 251.721 8.25924C252.938 10.4733 253.565 12.9628 253.544 15.4891C253.543 17.5955 253.068 19.6748 252.153 21.5722C250.811 24.4603 248.534 26.8113 245.691 28.2453C243.605 29.3424 241.283 29.9156 238.926 29.9157C236.435 29.9167 233.988 29.263 231.829 28.02C228.866 26.3563 226.752 24.0186 225.486 21.0071C224.616 18.9746 224.224 16.7699 224.339 14.5621C224.454 12.3543 225.073 10.2021 226.149 8.27081C227.624 5.56355 229.937 3.40755 232.741 2.12632C234.677 1.22246 236.789 0.756313 238.926 0.760927H238.936ZM237.374 2.12139L237.248 15.2339L237.351 26.1425L237.374 28.5966C237.805 28.6761 238.242 28.7171 238.68 28.7192C241.639 28.7192 244.284 27.8995 246.615 26.2601C248.69 24.8214 250.295 22.8045 251.232 20.4603C251.891 18.828 252.229 17.0837 252.226 15.3234C252.239 13.0374 251.658 10.7873 250.541 8.79278C249.237 6.3902 247.192 4.47244 244.711 3.32439C242.862 2.44344 240.838 1.99034 238.789 1.99872C238.312 1.99886 237.835 2.04104 237.366 2.12471L237.374 2.12139ZM281.601 14.9538V11.5932L281.54 6.2624L281.514 3.82322L281.48 2.29705C281.48 1.57953 281.729 1.21161 282.223 1.21161C282.518 1.21161 282.72 1.29617 282.834 1.46851C282.949 1.64084 283 1.94906 283 2.42465V2.70299C283 2.98635 282.985 3.44534 282.985 4.0916L282.924 10.8774L282.877 17.0948L282.932 23.6419L283 30.2024C280.233 28.4701 276.184 26.0767 270.854 23.0222C265.523 19.9676 261.204 17.5665 257.897 15.8188L257.92 16.8015L258.127 27.2046L258.145 28.5966C258.145 29.175 257.877 29.4616 257.333 29.4616C256.79 29.4616 256.495 29.1053 256.495 28.3978L256.515 26.9876L256.538 24.7124L256.618 14.3805L256.495 0.469238C261.939 3.83754 270.306 8.66576 281.595 14.9538H281.601Z" fill="black"/>
<path fill-rule="evenodd" clip-rule="evenodd" d="M90.5693 28.4526C87.3882 28.0528 84.4624 26.5054 82.3414 24.1011C80.2203 21.6968 79.0499 18.601 79.0499 15.3948C79.0499 12.1886 80.2203 9.09269 82.3414 6.68838C84.4624 4.28408 87.3882 2.73675 90.5693 2.33691H90.5875V28.4526H90.5693Z" fill="black"/>
<path d="M3.17625 40.0867H4.86813L2.60954 56.7802H0.917664L3.17625 40.0867ZM9.16332 44.435H10.6862L10.431 46.3721C11.6904 44.8807 13.1519 44.1317 14.8173 44.1317C16.0999 44.1317 17.1289 44.5228 17.9144 45.3016C18.6998 46.0804 19.0926 47.1343 19.0926 48.4501C19.0601 49.3431 18.9749 50.2333 18.8374 51.1163L18.0718 56.7819H16.5208L17.2896 51.1163C17.4263 50.2312 17.5082 49.3386 17.5349 48.4434C17.5349 47.5834 17.2714 46.894 16.7461 46.3671C16.2209 45.8401 15.5298 45.575 14.6764 45.575C13.8518 45.5713 13.042 45.7936 12.335 46.2179C11.6255 46.6322 11.0454 47.2358 10.6596 47.9612C10.2652 48.6986 9.95869 49.8619 9.74824 51.451L9.03572 56.7852H7.48633L9.16332 44.435ZM24.6471 44.435H26.1716L25.9148 46.3721C27.1742 44.8807 28.6357 44.1317 30.3044 44.1317C31.5837 44.1317 32.6243 44.5228 33.3982 45.3016C34.1721 46.0804 34.5764 47.1343 34.5764 48.4501C34.5446 49.343 34.4605 50.2332 34.3245 51.1163L33.5556 56.7819H32.0079L32.7735 51.1163C32.9101 50.2312 32.992 49.3386 33.0187 48.4434C33.0187 47.5834 32.7552 46.894 32.2299 46.3671C31.7046 45.8401 31.0136 45.575 30.1602 45.575C29.3382 45.571 28.5306 45.7922 27.8254 46.2146C27.1151 46.6283 26.5343 47.232 26.1484 47.9579C25.7541 48.6958 25.4503 49.8591 25.2371 51.4477L24.5245 56.7819H22.9751L24.6471 44.435ZM45.7236 44.1317C46.7403 44.1226 47.7414 44.3827 48.6251 44.8856C49.4953 45.3759 50.2093 46.102 50.6849 46.9802C51.1877 47.9137 51.4422 48.9608 51.4239 50.021C51.4314 51.2809 51.1068 52.5206 50.4827 53.6152C49.8854 54.6854 49.0063 55.5714 47.9408 56.177C46.8408 56.7913 45.598 57.1039 44.3382 57.0834C42.6729 57.0834 41.3075 56.5399 40.2304 55.4611C39.1533 54.3824 38.623 52.9954 38.623 51.3184C38.6133 50.0461 38.9379 48.7936 39.5642 47.6861C40.1765 46.5976 41.072 45.6951 42.1559 45.0746C43.2396 44.4472 44.4714 44.1211 45.7236 44.13V44.1317ZM45.6938 45.6429C44.7171 45.64 43.757 45.8943 42.9099 46.3803C42.0629 46.8473 41.368 47.5479 40.9081 48.3987C40.4347 49.2692 40.1922 50.2464 40.2038 51.2373C40.2038 52.5331 40.6098 53.592 41.4135 54.4023C42.2172 55.2126 43.2595 55.6186 44.5338 55.6186C45.483 55.6302 46.4178 55.3858 47.2398 54.911C48.064 54.4265 48.7345 53.7188 49.1736 52.8695C49.6458 51.9891 49.8918 51.0051 49.8895 50.006C49.9042 49.2157 49.7195 48.4343 49.3526 47.7342C49.0074 47.0843 48.4806 46.5488 47.8364 46.1931C47.1828 45.8249 46.4439 45.6351 45.6938 45.6429ZM55.1557 44.435H56.7747L59.895 53.4776L65.1131 44.435H66.8398L59.7143 56.7802H59.4078L55.1557 44.435ZM81.4006 56.7802H79.7999L80.0484 54.9193C78.6123 56.3642 76.974 57.0856 75.1335 57.0834C73.4654 57.0834 72.09 56.5444 71.0074 55.4661C69.9248 54.3879 69.3851 52.9982 69.3884 51.2969C69.3766 50.3548 69.558 49.4203 69.9214 48.551C70.2847 47.6818 70.8224 46.8962 71.5012 46.2428C72.9064 44.8387 74.5635 44.135 76.4725 44.1317C77.4169 44.1106 78.3511 44.3308 79.1868 44.7713C80.0086 45.2478 80.6838 45.9408 81.1388 46.7747L81.4537 44.435H83.0792L81.4006 56.7802ZM75.3257 55.6418C76.3004 55.6517 77.2602 55.4035 78.108 54.9226C78.953 54.4329 79.6424 53.7143 80.0965 52.8496C80.5847 51.9459 80.8372 50.9337 80.8306 49.9066C80.8306 48.6328 80.4274 47.5966 79.6209 46.7979C78.8139 45.9975 77.7683 45.5965 76.4725 45.5965C75.7465 45.5869 75.0265 45.728 74.3579 46.011C73.6893 46.2939 73.0867 46.7125 72.5883 47.2403C72.059 47.7688 71.6425 48.3992 71.3639 49.0933C71.0853 49.7875 70.9505 50.5309 70.9676 51.2787C70.9676 52.5856 71.3708 53.6395 72.1773 54.4404C72.9859 55.2441 74.0349 55.6418 75.3257 55.6418ZM89.9711 39.8067H91.5436L90.9239 44.435H93.4095L93.2289 45.8302H90.7433L89.2768 56.7802H87.6843L89.1757 45.8302H87.0629L87.2584 44.435H89.3646L89.9711 39.8067ZM98.167 39.3643C98.5031 39.3664 98.8249 39.5008 99.0628 39.7383C99.3006 39.9758 99.4354 40.2974 99.438 40.6335C99.4406 40.8009 99.4088 40.9671 99.3443 41.1217C99.2799 41.2762 99.1843 41.4158 99.0635 41.5317C98.9464 41.65 98.8067 41.7436 98.6526 41.8068C98.4986 41.87 98.3335 41.9015 98.167 41.8996C97.8308 41.8996 97.5084 41.766 97.2706 41.5283C97.0329 41.2905 96.8994 40.9681 96.8994 40.6319C96.8994 40.2957 97.0329 39.9733 97.2706 39.7356C97.5084 39.4978 97.8308 39.3643 98.167 39.3643ZM96.9192 44.435H98.4106L96.7883 56.7802H95.2373L96.9192 44.435ZM108.759 44.1317C109.776 44.1224 110.777 44.3825 111.661 44.8856C112.531 45.3764 113.246 46.1022 113.724 46.9802C114.225 47.9143 114.479 48.961 114.463 50.021C114.47 51.2808 114.145 52.5203 113.522 53.6152C112.924 54.685 112.045 55.5709 110.98 56.177C109.878 56.7911 108.635 57.1037 107.374 57.0834C105.717 57.0834 104.349 56.5427 103.269 55.4611C102.194 54.3757 101.662 52.9954 101.662 51.3184C101.651 50.046 101.976 48.7933 102.603 47.6861C103.215 46.5972 104.111 45.6947 105.195 45.0746C106.277 44.4476 107.508 44.1215 108.759 44.13V44.1317ZM108.733 45.6429C107.755 45.6404 106.794 45.8947 105.945 46.3803C105.099 46.8474 104.406 47.5481 103.947 48.3987C103.474 49.2692 103.231 50.2464 103.243 51.2373C103.243 52.5331 103.645 53.592 104.449 54.4023C105.253 55.2126 106.298 55.6186 107.573 55.6186C108.522 55.6302 109.457 55.3858 110.279 54.911C111.101 54.4262 111.77 53.7184 112.207 52.8695C112.683 51.9903 112.931 51.0058 112.928 50.006C112.943 49.2157 112.758 48.4343 112.391 47.7342C112.046 47.0843 111.519 46.5488 110.875 46.1931C110.221 45.8255 109.483 45.6358 108.733 45.6429ZM119.702 44.435H121.227L120.97 46.3721C122.226 44.8807 123.691 44.1317 125.356 44.1317C126.639 44.1317 127.668 44.5228 128.454 45.3016C129.239 46.0804 129.633 47.1343 129.633 48.4501C129.601 49.3431 129.515 50.2335 129.377 51.1163L128.611 56.7819H127.06L127.831 51.1163C127.966 50.2311 128.047 49.3385 128.074 48.4434C128.074 47.5834 127.811 46.894 127.285 46.3671C126.76 45.8401 126.069 45.575 125.216 45.575C124.394 45.571 123.586 45.7922 122.881 46.2146C122.17 46.6283 121.59 47.232 121.204 47.9579C120.806 48.6958 120.502 49.8591 120.292 51.4477L119.58 56.7819H118.031L119.702 44.435ZM155.496 40.0867L155.293 41.7157H148.879L148.14 47.184H154.548L154.341 48.7632H147.926L146.839 56.7852H145.182L147.44 40.0867H155.496ZM164.954 44.1317C165.971 44.1226 166.972 44.3827 167.856 44.8856C168.726 45.3759 169.44 46.102 169.915 46.9802C170.418 47.9137 170.673 48.9608 170.655 50.021C170.662 51.2809 170.337 52.5206 169.713 53.6152C169.116 54.6854 168.237 55.5714 167.171 56.177C166.071 56.7913 164.829 57.1039 163.569 57.0834C161.912 57.0834 160.538 56.5399 159.461 55.4611C158.384 54.3824 157.854 52.9954 157.854 51.3184C157.844 50.0461 158.168 48.7936 158.795 47.6861C159.407 46.5976 160.303 45.6951 161.386 45.0746C162.47 44.4472 163.702 44.1211 164.954 44.13V44.1317ZM164.924 45.6429C163.946 45.6401 162.984 45.8957 162.135 46.3836C161.289 46.8506 160.594 47.5512 160.134 48.402C159.66 49.2725 159.418 50.2498 159.429 51.2406C159.429 52.5364 159.835 53.5953 160.639 54.4056C161.443 55.2159 162.485 55.6219 163.759 55.6219C164.709 55.6338 165.644 55.3893 166.465 54.9143C167.29 54.4298 167.96 53.7221 168.399 52.8728C168.871 51.9924 169.117 51.0084 169.115 50.0093C169.13 49.219 168.945 48.4377 168.578 47.7375C168.234 47.0876 167.707 46.5522 167.064 46.1964C166.409 45.8285 165.67 45.6387 164.919 45.6462L164.924 45.6429ZM175.245 44.435H176.814L176.604 45.9826C177.011 45.4197 177.539 44.9549 178.15 44.6222C178.716 44.3027 179.355 44.1317 180.006 44.1251C180.493 44.1322 180.973 44.2405 181.416 44.4432L180.668 45.8965C180.241 45.6935 179.764 45.6169 179.294 45.6756C178.825 45.7343 178.382 45.9259 178.017 46.2279C177.435 46.6592 176.978 47.2366 176.691 47.9016C176.36 48.6362 176.075 49.8486 175.838 51.5388L175.115 56.7686H173.569L175.245 44.435ZM211.571 42.3884L210.56 43.7837C208.793 42.1266 206.777 41.2981 204.512 41.2981C203.061 41.2912 201.633 41.663 200.369 42.3768C199.125 43.0606 198.085 44.0654 197.36 45.2866C196.646 46.473 196.271 47.8326 196.276 49.2173C196.253 50.3797 196.539 51.5273 197.105 52.543C197.671 53.5202 198.509 54.3123 199.516 54.8232C200.636 55.3884 201.876 55.6727 203.13 55.6518C205.198 55.6518 207.125 55.0005 208.91 53.698L209.841 55.0237C208.516 55.881 207.373 56.4582 206.414 56.7553C205.339 57.0721 204.221 57.2241 203.1 57.2061C200.78 57.2061 198.895 56.6277 197.443 55.4711C195.505 53.9189 194.538 51.8487 194.541 49.2603C194.541 46.5924 195.509 44.3277 197.443 42.4663C199.377 40.6048 201.78 39.6752 204.651 39.6774C205.874 39.6605 207.09 39.8696 208.237 40.2939C209.309 40.7065 210.42 41.4058 211.551 42.3967L211.571 42.3884ZM227.102 50.9224H216.074C216.05 52.3906 216.432 53.5444 217.217 54.384C218.002 55.2236 219.052 55.6429 220.365 55.6418C221.202 55.6505 222.029 55.4686 222.785 55.1099C223.509 54.768 224.139 54.2563 224.623 53.6185L225.809 54.5747C225.181 55.358 224.377 55.9825 223.463 56.3974C222.482 56.8562 221.41 57.09 220.327 57.0818C218.386 57.0818 216.93 56.4836 215.959 55.2872C215.008 54.1578 214.49 52.7269 214.498 51.2505C214.504 50.0073 214.843 48.7885 215.48 47.7209C216.104 46.6253 217.007 45.7153 218.098 45.0843C219.19 44.4532 220.429 44.1239 221.689 44.13C223.27 44.13 224.584 44.6652 225.622 45.7324C226.659 46.7995 227.183 48.16 227.183 49.8121C227.178 50.1828 227.152 50.5529 227.107 50.9207L227.102 50.9224ZM225.643 49.5272C225.594 48.3672 225.199 47.4359 224.449 46.7101C224.071 46.3538 223.627 46.0756 223.141 45.8913C222.656 45.707 222.139 45.6204 221.62 45.6363C220.447 45.6174 219.299 45.9809 218.35 46.672C217.395 47.3829 216.692 48.3812 216.345 49.5205L225.643 49.5272ZM231.765 44.435H233.337L233.127 45.9826C233.532 45.4187 234.059 44.9537 234.669 44.6222C235.238 44.302 235.878 44.131 236.53 44.1251C237.017 44.1327 237.496 44.241 237.939 44.4432L237.188 45.8965C236.761 45.6925 236.284 45.6153 235.814 45.674C235.344 45.7328 234.901 45.925 234.537 46.2279C233.955 46.6594 233.498 47.2368 233.211 47.9016C232.88 48.6362 232.595 49.8486 232.358 51.5388L231.639 56.7686H230.088L231.765 44.435ZM242.635 39.8067H244.204L243.581 44.435H246.067L245.883 45.8302H243.397L241.931 56.7802H240.338L241.82 45.8302H239.71L239.906 44.435H242.007L242.635 39.8067ZM260.432 56.7802H258.831L259.08 54.9193C257.644 56.3642 256.007 57.0856 254.168 57.0834C252.496 57.0834 251.119 56.5444 250.039 55.4661C248.958 54.3874 248.423 52.9954 248.423 51.2969C248.411 50.355 248.592 49.4206 248.954 48.5513C249.317 47.682 249.854 46.8963 250.533 46.2428C251.938 44.8387 253.595 44.135 255.504 44.1317C256.448 44.1106 257.383 44.3308 258.218 44.7713C259.039 45.2488 259.714 45.9415 260.17 46.7747L260.488 44.435H262.111L260.432 56.7802ZM254.357 55.6418C255.332 55.6517 256.292 55.4035 257.14 54.9226C257.985 54.4331 258.674 53.7144 259.128 52.8496C259.619 51.9469 259.872 50.9341 259.864 49.9066C259.864 48.6328 259.461 47.5966 258.654 46.7979C257.845 45.9975 256.801 45.5965 255.506 45.5965C254.779 45.5866 254.059 45.7276 253.39 46.0106C252.721 46.2935 252.118 46.7123 251.62 47.2403C251.091 47.7691 250.675 48.3996 250.397 49.0937C250.118 49.7878 249.984 50.5311 250.001 51.2787C250.001 52.5856 250.404 53.6395 251.21 54.4404C252.017 55.2441 253.066 55.6418 254.359 55.6418H254.357ZM268.022 39.3643C268.358 39.3656 268.68 39.4998 268.917 39.7376C269.155 39.9754 269.288 40.2974 269.289 40.6335C269.292 40.8007 269.261 40.9668 269.197 41.1214C269.133 41.2759 269.038 41.4156 268.918 41.5317C268.801 41.6502 268.661 41.7438 268.507 41.807C268.353 41.8702 268.188 41.9017 268.022 41.8996C267.685 41.8996 267.363 41.766 267.125 41.5283C266.887 41.2905 266.754 40.9681 266.754 40.6319C266.754 40.2957 266.887 39.9733 267.125 39.7356C267.363 39.4978 267.685 39.3643 268.022 39.3643ZM266.774 44.435H268.275L266.651 56.7802H265.102L266.774 44.435ZM273.026 44.435H274.549L274.292 46.3721C275.551 44.8807 277.015 44.1317 278.68 44.1317C279.961 44.1317 280.993 44.5217 281.775 45.3016C282.561 46.0821 282.955 47.1343 282.955 48.4501C282.923 49.3431 282.837 50.2335 282.698 51.1163L281.933 56.7819H280.383L281.152 51.1163C281.288 50.2311 281.37 49.3385 281.398 48.4434C281.398 47.5834 281.132 46.894 280.609 46.3671C280.085 45.8401 279.391 45.575 278.537 45.575C277.715 45.571 276.908 45.7922 276.203 46.2146C275.492 46.6283 274.911 47.232 274.526 47.9579C274.131 48.6958 273.827 49.8591 273.614 51.4477L272.903 56.7819H271.352L273.026 44.435Z" fill="black"/>
</svg>
