<svg width="282" height="77" viewBox="0 0 282 77" fill="none" xmlns="http://www.w3.org/2000/svg">
<path d="M0.239685 23.7218V52.2088C0.239685 52.2088 0.5827 54.5917 3.46934 53.0373C6.57804 51.3703 10.4523 49.1647 10.4523 49.1647C10.4523 49.1647 11.531 48.6559 11.531 48.0362V28.2655C11.531 28.2655 11.4814 28.0186 11.0107 27.7087C10.5766 27.4254 3.16111 23.0888 3.16111 23.0888C3.16111 23.0888 1.38805 22.0647 0.239685 23.7218Z" fill="black"/>
<path d="M29.9379 0.772833L4.78167 15.2707C4.78167 15.2707 2.84951 16.782 5.64667 18.4739C8.65925 20.2967 12.5236 22.5006 12.5236 22.5006C12.5236 22.5006 13.5079 23.1635 14.0564 22.8503L31.5105 12.7851C31.5105 12.7851 31.7027 12.6193 31.7441 12.0543C31.7822 11.5373 31.9363 2.9586 31.9363 2.9586C31.9363 2.9586 31.9446 0.453016 29.9379 0.772833Z" fill="black"/>
<path d="M38.7288 0.772782L63.8833 15.2707C63.8833 15.2707 65.8205 16.7819 63.02 18.4738C60.0107 20.2966 56.1431 22.5005 56.1431 22.5005C56.1431 22.5005 55.1588 23.1634 54.6153 22.8502C52.8322 21.8261 37.1562 12.79 37.1562 12.79C37.1562 12.79 36.964 12.6243 36.9209 12.0592C36.8844 11.5422 36.7303 2.96348 36.7303 2.96348C36.7303 2.96348 36.7171 0.452965 38.7288 0.772782Z" fill="black"/>
<path d="M29.9379 75.2473L4.78167 60.7462C4.78167 60.7462 2.84951 59.2382 5.64667 57.548C8.65925 55.7252 12.5236 53.5196 12.5236 53.5196C12.5236 53.5196 13.5079 52.8568 14.0564 53.17L31.5105 63.2302C31.5105 63.2302 31.7027 63.3959 31.7441 63.961C31.7822 64.478 31.9363 73.0583 31.9363 73.0583C31.9363 73.0583 31.9446 75.5672 29.9379 75.2473Z" fill="black"/>
<path d="M37.7875 63.8533C37.7742 63.9149 37.7659 63.9775 37.7627 64.0405C37.7362 64.4001 37.6351 69.6498 37.5721 73.0882C37.5721 73.3649 37.6815 74.0559 37.998 74.3244C38.0627 74.3751 38.1371 74.4123 38.2165 74.4336C38.2959 74.455 38.3789 74.4601 38.4603 74.4487L63.3961 60.0734C63.479 59.9956 63.7176 59.742 63.6978 59.462C63.6729 59.1223 63.2685 58.6931 62.5891 58.2821C59.6229 56.4858 55.7686 54.2886 55.7305 54.267L55.6758 54.2322C55.4685 54.092 55.2361 53.993 54.9914 53.9405C53.1222 55.016 39.6352 62.7878 37.7875 63.8533ZM38.3941 76.1306C37.849 76.1412 37.3187 75.9526 36.9027 75.6003C35.9084 74.7535 35.8918 73.2406 35.8918 73.0716C35.9084 72.1784 36.0476 64.4415 36.0857 63.9178C36.1437 63.1208 36.4387 62.7579 36.6077 62.6088L36.7386 62.5176C36.7386 62.5176 52.4163 53.4799 54.1977 52.4575C55.0975 51.9322 56.221 52.5768 56.5888 52.822C56.9368 53.0192 60.6023 55.1138 63.4575 56.8437C64.6738 57.5778 65.3184 58.428 65.3747 59.3692C65.446 60.5755 64.5097 61.3411 64.402 61.4256L64.3059 61.4902L39.0155 76.0726L38.863 76.0958C38.7078 76.1197 38.5511 76.1313 38.3941 76.1306Z" fill="black"/>
<path d="M58.0289 47.9835C58.1987 48.1639 58.4011 48.3107 58.6254 48.416L58.6851 48.4474C58.7232 48.469 62.5792 50.6662 65.6448 52.3084C66.3574 52.6929 66.949 52.8255 67.2638 52.6714C67.3587 52.6106 67.4406 52.5315 67.5046 52.4388C67.5686 52.346 67.6135 52.2414 67.6367 52.1311V24.0236C67.0119 23.3475 66.2165 23.7039 65.9796 23.8381C63.015 25.5714 58.4812 28.2294 58.178 28.4299C58.1271 28.462 58.0784 28.4973 58.0322 28.5359L58.0289 47.9835ZM66.9539 54.4163C66.3309 54.4163 65.6283 54.2075 64.8527 53.7915C61.9015 52.2107 58.2244 50.1211 57.8781 49.9239C57.4787 49.73 56.3486 49.0954 56.3486 48.0497L56.3635 28.1183C56.4082 27.8979 56.5822 27.4555 57.2533 27.023C57.6891 26.7363 64.3788 22.8256 65.1361 22.3831C65.9845 21.886 67.9134 21.4436 69.1711 23.2515L69.3219 23.4686L69.3136 52.34C69.2937 52.4692 69.0982 53.6325 68.031 54.171C67.6964 54.3366 67.3273 54.4206 66.9539 54.4163Z" fill="black"/>
<path d="M139.645 40.7751H132.828C129.716 40.7751 127.996 42.23 127.996 44.6808C127.996 47.0654 129.582 48.6578 132.957 48.6578C135.343 48.6578 136.863 48.459 138.383 47.0007C139.312 46.1407 139.642 44.7504 139.642 42.6294L139.645 40.7751ZM139.844 55.3342V52.3515C137.524 54.6714 135.347 55.6656 131.376 55.6656C127.472 55.6656 124.624 54.6714 122.576 52.6216C120.718 50.701 119.724 47.9204 119.724 44.8747C119.724 39.3848 123.497 34.8825 131.511 34.8825H139.645V33.1674C139.645 29.3926 137.793 27.7388 133.229 27.7388C129.915 27.7388 128.399 28.5342 126.611 30.5856L121.112 25.2267C124.493 21.5181 127.8 20.4575 133.562 20.4575C143.221 20.4575 148.251 24.5655 148.251 32.6355V55.3376L139.844 55.3342Z" fill="black"/>
<path d="M174.268 55.3306V34.4927C174.268 29.7916 171.294 28.2058 168.58 28.2058C165.865 28.2058 162.821 29.785 162.821 34.4927V55.3372H154.214V20.8499H162.622V24.0266C164.873 21.642 168.046 20.4556 171.228 20.4556C174.666 20.4556 177.445 21.5807 179.366 23.498C182.146 26.2785 182.874 29.5215 182.874 33.2913V55.3306H174.268Z" fill="black"/>
<path d="M206.298 40.7751H199.484C196.372 40.7751 194.657 42.23 194.657 44.6808C194.657 47.0654 196.238 48.6578 199.615 48.6578C202 48.6578 203.524 48.459 205.042 47.0007C205.97 46.1407 206.298 44.7504 206.298 42.6294V40.7751ZM206.499 55.3342V52.3515C204.179 54.6714 202 55.6656 198.026 55.6656C194.125 55.6656 191.277 54.6714 189.225 52.6216C187.373 50.701 186.38 47.9204 186.38 44.8747C186.38 39.3848 190.152 34.8825 198.16 34.8825H206.298V33.1674C206.298 29.3926 204.451 27.7388 199.879 27.7388C196.564 27.7388 195.052 28.5342 193.264 30.5856L187.77 25.2267C191.147 21.5181 194.455 20.4575 200.212 20.4575C209.874 20.4575 214.905 24.5655 214.905 32.6355V55.3376L206.499 55.3342Z" fill="black"/>
<path d="M238.338 40.7751H231.524C228.412 40.7751 226.694 42.23 226.694 44.6808C226.694 47.0654 228.278 48.6578 231.655 48.6578C234.04 48.6578 235.559 48.459 237.079 47.0007C238.01 46.1407 238.338 44.7504 238.338 42.6294V40.7751ZM238.539 55.3342V52.3515C236.219 54.6714 234.04 55.6656 230.069 55.6656C226.165 55.6656 223.322 54.6714 221.268 52.6216C219.412 50.701 218.42 47.9204 218.42 44.8747C218.42 39.3848 222.196 34.8825 230.203 34.8825H238.338V33.1674C238.338 29.3926 236.485 27.7388 231.923 27.7388C228.609 27.7388 227.091 28.5342 225.307 30.5856L219.807 25.2267C223.187 21.5181 226.498 20.4575 232.255 20.4575C241.922 20.4575 246.945 24.5655 246.945 32.6355V55.3376L238.539 55.3342Z" fill="black"/>
<path d="M272.956 55.3306V34.4927C272.956 29.7916 269.973 28.2058 267.267 28.2058C264.561 28.2058 261.509 29.7916 261.509 34.4927V55.3372H252.904V20.8499H261.31V24.0266C263.56 21.642 266.735 20.4556 269.912 20.4556C273.351 20.4556 276.129 21.5807 278.055 23.498C280.834 26.2785 281.561 29.5215 281.561 33.2913V55.3306H272.956Z" fill="black"/>
<path d="M113.037 46.7934C112.287 47.0353 111.52 47.2474 110.757 47.4297C109.999 47.612 109.231 47.7526 108.457 47.8506C106.121 48.1472 104.149 47.9864 102.45 47.312C101.344 46.8797 100.345 46.2106 99.5239 45.3517C98.685 44.4513 98.0422 43.3866 97.6364 42.2248C97.172 40.8749 96.9449 39.4548 96.9654 38.0274C96.952 36.6286 97.1629 35.2367 97.5901 33.9046C97.9623 32.7397 98.5722 31.6647 99.3814 30.7478C100.182 29.8709 101.165 29.1802 102.261 28.7245C104.507 27.7684 107.436 27.8015 110.593 28.5455C112.1 28.8921 113.562 29.4132 114.948 30.0982L115.425 30.3352V21.7565L115.188 21.6869C113.863 21.3037 112.513 21.0091 111.148 20.8053C109.316 20.5509 107.468 20.4341 105.619 20.4557C102.937 20.4557 100.467 20.8832 98.2778 21.7266C96.1496 22.5183 94.217 23.7592 92.6114 25.3648C91.0058 26.9704 89.7649 28.903 88.9732 31.0311C88.1182 33.2318 87.684 35.7191 87.684 38.4235C87.684 41.214 88.0834 43.7096 88.8738 45.8422C89.6014 47.8855 90.7807 49.7383 92.3239 51.2626C93.8869 52.7548 95.7613 53.8821 97.8121 54.5635C99.9431 55.2959 102.382 55.6654 105.059 55.6654C106.855 55.6706 108.648 55.5153 110.416 55.2015C112.117 54.8926 113.783 54.4118 115.387 53.7664L115.594 53.6818V45.8173L115.132 46.0162C114.484 46.2946 113.781 46.5564 113.037 46.7934Z" fill="black"/>
</svg>
