<svg width="250" height="94" viewBox="0 0 250 94" fill="none" xmlns="http://www.w3.org/2000/svg">
<path d="M76.9025 79.8188H0.419434V82.6287H76.9025V79.8188Z" fill="black"/>
<path d="M249.711 79.8188H172.383V82.6287H249.711V79.8188Z" fill="black"/>
<path d="M249.711 12.2437H207.553V20.3535H249.711V12.2437Z" fill="black"/>
<path d="M100.554 24.5195H93.9287V30.937H100.554V24.5195Z" fill="black"/>
<path d="M233.797 20.353H223.466V54.3556H233.797V20.353Z" fill="black"/>
<path d="M64.3565 24.5195H54.0249V54.3557H64.3565V24.5195Z" fill="black"/>
<path d="M142.516 64.5335H132.184L112.052 43.2925H122.382L142.516 64.5335Z" fill="black"/>
<path d="M11.2922 24.5195H0.960632V54.3557H11.2922V24.5195Z" fill="black"/>
<path d="M107.636 36.8751H99.7963V54.3559H107.636V36.8751Z" fill="black"/>
<path d="M160.139 70.2076H88.0187C86.5198 70.208 85.0824 70.8036 84.0226 71.8634C82.9627 72.9233 82.3671 74.3607 82.3667 75.8595V87.6415C82.3671 89.1402 82.9628 90.5774 84.0227 91.6371C85.0826 92.6967 86.5199 93.292 88.0187 93.292H160.143C160.885 93.2922 161.62 93.1461 162.306 92.8623C162.992 92.5784 163.615 92.1622 164.14 91.6375C164.665 91.1128 165.081 90.4898 165.365 89.8041C165.649 89.1185 165.795 88.3836 165.795 87.6415V75.8595C165.795 75.1169 165.649 74.3816 165.365 73.6956C165.08 73.0096 164.664 72.3863 164.138 71.8614C163.613 71.3365 162.989 70.9203 162.303 70.6365C161.617 70.3527 160.881 70.207 160.139 70.2076ZM144.663 77.6149V74.0953H146.45V77.6149H147.412V73.56H149.202V77.6149H150.167V74.0953H151.959V79.4041H144.664L144.663 77.6149ZM144 80.3485H151.959V82.1377H144.001L144 80.3485ZM100.554 79.0198H94.8233V86.9889L99.8622 85.7321L100.295 87.467L92.3331 89.4497L91.8932 87.7148L93.0268 87.4318V73.8093H94.816V77.2292H100.547L100.554 79.0198ZM109.989 89.174H102.47V73.8123H104.257V77.4976L108.988 75.3917L109.722 77.0254L104.263 79.4539V87.3848H109.994L109.989 89.174ZM121.81 85.317V89.1388H120.022V86.5167L117.056 88.5199L116.057 87.0358L120.017 84.3667V78.442H118.185L117.801 84.7114L116.016 83.7317L116.633 73.6715L118.418 74.6511L118.295 76.6529H120.022V73.8123H121.81V76.6529H123.508V78.442H121.816V83.1613L122.869 82.4515L123.869 83.9342L121.81 85.317ZM125.686 89.1388L124.23 86.2057L125.446 84.6322L126.902 87.5652L125.686 89.1388ZM134.07 83.7934H132.658V89.174H128.65V87.3848H130.869V83.7934H124.379V82.0057H130.869V81.0906H132.658V82.0042H134.067L134.07 83.7934ZM134.07 79.954H124.379V78.1664H128.332V76.3538H124.875V74.566H128.332V73.8123H130.119V74.566H133.576V76.3538H130.119V78.1664H134.067L134.07 79.954ZM142.715 82.8988V89.174H140.926V83.5206L140.576 83.9811L139.155 82.8944L142.152 78.97L143.573 80.0552L141.4 82.8988H142.715ZM140.576 78.442L139.155 77.3553L142.152 73.431L143.573 74.5162L140.576 78.442ZM147.605 87.7852L148.941 86.7586V85.0135H146.555V86.7821H146.516L145.205 89.2825L143.621 88.4525L144.765 86.2703V83.2258H150.728V85.3831L151.645 84.6777L152.736 86.0943L148.694 89.2048L147.605 87.7852ZM156.452 89.215L154.94 86.282L153.843 89.1403L152.174 88.5008L153.842 84.1512L152.756 82.0438L154.345 81.224L154.7 81.9118L155.796 79.0492V75.8844H154.544V80.3573H152.756V73.5556H154.544V74.0909H155.796V73.5556H157.586V74.0909H157.904V75.8786H157.586V79.3557V79.3718V79.3968H157.575L155.798 84.0338L158.042 88.3894L156.452 89.215Z" fill="black"/>
<path d="M62.4867 13.7437H56.1176V20.1127H62.4867V13.7437Z" fill="black"/>
<path d="M67.8028 4.64404H61.4338V11.0131H67.8028V4.64404Z" fill="black"/>
<path d="M58.2074 0.353027H53.9149V4.64551H58.2074V0.353027Z" fill="black"/>
<path d="M75.0664 4.64404H70.774V8.93653H75.0664V4.64404Z" fill="black"/>
<path d="M163.251 24.5195H143.33C142.204 24.5193 141.089 24.7409 140.049 25.1716C139.009 25.6023 138.064 26.2337 137.268 27.0296C136.472 27.8256 135.84 28.7707 135.409 29.8107C134.978 30.8508 134.756 31.9655 134.756 33.0913V45.9263C134.756 48.2 135.66 50.3806 137.268 51.9884C138.875 53.5962 141.056 54.4995 143.33 54.4995H163.251C165.525 54.4995 167.705 53.5962 169.313 51.9884C170.921 50.3806 171.824 48.2 171.824 45.9263V33.0913C171.824 30.8178 170.92 28.6376 169.313 27.0301C167.705 25.4226 165.524 24.5195 163.251 24.5195ZM163.865 44.4935C163.865 44.9647 163.773 45.4312 163.593 45.8666C163.412 46.302 163.148 46.6976 162.815 47.0309C162.482 47.3641 162.087 47.6284 161.651 47.8088C161.216 47.9892 160.749 48.082 160.278 48.082H146.301C145.83 48.082 145.363 47.9892 144.928 47.8088C144.493 47.6284 144.097 47.3641 143.764 47.0309C143.431 46.6976 143.167 46.302 142.986 45.8666C142.806 45.4312 142.714 44.9647 142.714 44.4935V34.5212C142.714 33.5698 143.092 32.6574 143.764 31.9847C144.437 31.312 145.349 30.9341 146.301 30.9341H160.278C161.23 30.9341 162.142 31.312 162.815 31.9847C163.487 32.6574 163.865 33.5698 163.865 34.5212V44.4935Z" fill="black"/>
<path d="M195.76 12.563H175.044V21.06H191.889C193.073 21.06 194.208 21.5303 195.045 22.3675C195.883 23.2046 196.353 24.3401 196.353 25.524V26.096C196.353 27.2799 195.883 28.4154 195.045 29.2526C194.208 30.0897 193.073 30.56 191.889 30.56H175.044V35.2881H195.76C196.886 35.2881 198.001 35.0663 199.041 34.6355C200.081 34.2046 201.026 33.573 201.822 32.7769C202.618 31.9808 203.249 31.0357 203.68 29.9956C204.111 28.9554 204.332 27.8407 204.332 26.7149V21.1421C204.333 20.0159 204.112 18.9005 203.681 17.8598C203.251 16.8191 202.62 15.8733 201.824 15.0766C201.028 14.2799 200.083 13.6479 199.042 13.2166C198.002 12.7853 196.887 12.5632 195.76 12.563Z" fill="black"/>
<path d="M195.76 54.356H175.044V45.859H191.889C193.073 45.859 194.208 45.3887 195.045 44.5515C195.883 43.7143 196.353 42.5788 196.353 41.3949V40.8303C196.353 39.6464 195.883 38.5109 195.045 37.6738C194.208 36.8366 193.073 36.3662 191.889 36.3662H175.044V31.6396H195.76C198.034 31.6396 200.214 32.5427 201.822 34.1503C203.429 35.7578 204.332 37.9381 204.332 40.2114V45.7842C204.332 48.0576 203.429 50.2379 201.822 51.8454C200.214 53.4529 198.034 54.356 195.76 54.356Z" fill="black"/>
<path d="M123.19 24.5195H99.7948V30.9355H119.874C120.662 30.9355 121.417 31.2482 121.974 31.8048C122.531 32.3614 122.844 33.1164 122.844 33.9038C122.844 34.6914 122.531 35.4467 121.974 36.0037C121.417 36.5606 120.662 36.8735 119.874 36.8735H99.7948V43.2909H123.19C124.316 43.2911 125.431 43.0695 126.471 42.6388C127.511 42.2082 128.456 41.5768 129.252 40.7808C130.048 39.9848 130.68 39.0398 131.111 37.9997C131.542 36.9596 131.763 35.8449 131.763 34.7191V33.0913C131.763 31.9655 131.542 30.8508 131.111 29.8107C130.68 28.7707 130.048 27.8256 129.252 27.0296C128.456 26.2337 127.511 25.6023 126.471 25.1716C125.431 24.7409 124.316 24.5193 123.19 24.5195Z" fill="black"/>
<path d="M78.6418 48.082C78.1706 48.082 77.7041 47.9892 77.2687 47.8089C76.8334 47.6285 76.438 47.3642 76.1048 47.0309C75.7717 46.6977 75.5075 46.302 75.3273 45.8667C75.1472 45.4313 75.0545 44.9647 75.0547 44.4935V34.5212C75.0547 33.5699 75.4326 32.6575 76.1053 31.9848C76.7781 31.3121 77.6905 30.9342 78.6418 30.9342H94.4317V24.5167H75.2204C72.9478 24.5167 70.7683 25.4195 69.1614 27.0264C67.5544 28.6334 66.6516 30.8129 66.6516 33.0855V45.9277C66.6516 48.2003 67.5544 50.3799 69.1614 51.9869C70.7683 53.5938 72.9478 54.4966 75.2204 54.4966H94.4317V48.0791L78.6418 48.082Z" fill="black"/>
<path d="M99.7963 36.875V43.2925H119.961V36.875H99.7963Z" fill="black"/>
<path d="M51.8076 22.4756V13.2482H48.8305C47.6286 13.2413 46.4444 13.5373 45.3872 14.1091C43.6977 15.0344 41.5229 16.916 40.4098 20.6879C38.43 27.3928 33.2899 44.4102 33.2899 44.4102C33.2899 44.4102 32.6505 45.1771 32.2633 44.4102C31.8762 43.6432 24.9836 20.6248 24.9836 20.6248C24.9836 20.6248 22.973 14.2058 17.8959 13.5679C12.8189 12.93 8.86073 13.4726 7.07305 14.5578C5.28537 15.643 1.09555 19.3152 0.954761 24.5199C0.813976 29.7245 11.2863 24.5199 11.2863 24.5199C11.2863 24.5199 11.7659 22.1881 13.2031 22.1573C14.6403 22.1265 16.3634 24.5198 16.7784 25.7004C17.1934 26.8809 25.6552 51.1473 25.6552 51.1473C25.6552 51.1473 26.4207 53.287 28.6234 54.2124C30.8261 55.1378 37.0207 54.2124 37.0207 54.2124C37.0207 54.2124 38.6808 54.1478 40.181 50.0621C41.6813 45.9764 48.1955 25.0947 48.1955 25.0947C48.1955 25.0947 49.0622 22.1573 51.8076 22.4756Z" fill="black"/>
</svg>
