<svg width="282" height="67" viewBox="0 0 282 67" fill="none" xmlns="http://www.w3.org/2000/svg">
<path d="M40.461 22.9898C40.3715 21.1239 39.77 19.3939 38.0897 18.3268C37.7522 18.129 37.3972 17.9625 37.0292 17.8296C37.0292 17.8296 37.2678 17.6523 37.3938 17.5496C37.8922 17.0793 38.3568 16.5742 38.784 16.0383C39.496 15.0071 39.8695 13.78 39.8528 12.527C39.8528 10.3728 39.8528 9.77619 39.8528 7.74295C39.8528 5.70971 39.1486 4.7453 38.103 3.57374C36.2123 1.45267 33.5659 0.794807 30.956 0.756694C24.1868 0.657269 1.54601 0.672181 1.54601 0.672181C1.13681 0.673052 0.744568 0.835767 0.454909 1.1248C0.165251 1.41384 0.00168863 1.80574 -6.10352e-05 2.21494V35.2572C0.00168625 35.6665 0.165216 36.0586 0.454828 36.3479C0.74444 36.6372 1.13666 36.8003 1.54601 36.8016H25.9466C29.1961 36.8016 31.8143 36.6359 34.6579 35.8786C38.3134 34.9076 40.1561 32.4832 40.4461 29.005C40.6118 27.0165 40.5538 24.9949 40.456 22.9948L40.461 22.9898ZM7.6822 7.95506C7.6822 7.85025 7.70289 7.74647 7.74305 7.64966C7.78321 7.55285 7.84205 7.46494 7.91624 7.3909C7.99043 7.31687 8.07851 7.25819 8.17541 7.21823C8.2723 7.17828 8.37612 7.15782 8.48093 7.15804H30.8516C31.2735 7.15847 31.678 7.32614 31.9765 7.62433C32.2751 7.92252 32.4431 8.32689 32.444 8.74881V13.3555C32.4442 13.5649 32.4033 13.7722 32.3233 13.9657C32.2434 14.1592 32.1262 14.335 31.9783 14.4832C31.8304 14.6314 31.6548 14.749 31.4615 14.8293C31.2682 14.9096 31.0609 14.9511 30.8516 14.9513H8.48093C8.2691 14.9513 8.06595 14.8671 7.91616 14.7174C7.76637 14.5676 7.6822 14.3644 7.6822 14.1526V7.95506ZM32.7987 28.5195C32.7987 28.7291 32.7573 28.9367 32.677 29.1303C32.5966 29.3239 32.479 29.4998 32.3306 29.6479C32.1822 29.7959 32.0061 29.9133 31.8123 29.9932C31.6185 30.0732 31.4108 30.114 31.2012 30.1136H8.48757C8.38276 30.1138 8.2789 30.0934 8.182 30.0534C8.08511 30.0135 7.99707 29.9548 7.92288 29.8807C7.84869 29.8067 7.7898 29.7188 7.74965 29.622C7.70949 29.5252 7.68884 29.4214 7.68884 29.3166V21.921C7.68884 21.8162 7.70949 21.7124 7.74965 21.6156C7.7898 21.5188 7.84869 21.4308 7.92288 21.3568C7.99707 21.2827 8.08511 21.2241 8.182 21.1841C8.2789 21.1442 8.38276 21.1237 8.48757 21.1239H31.2128C31.4224 21.1237 31.6299 21.1648 31.8236 21.2448C32.0173 21.3248 32.1933 21.4421 32.3417 21.5902C32.49 21.7382 32.6077 21.914 32.6881 22.1075C32.7685 22.301 32.81 22.5085 32.8102 22.7181L32.7987 28.5195Z" fill="black"/>
<path d="M60.1787 0.63916C59.9832 0.639598 59.7959 0.717446 59.6577 0.855641C59.5195 0.993836 59.4417 1.18112 59.4413 1.37656V6.4174C59.4417 6.61268 59.5196 6.79985 59.6578 6.93778C59.7961 7.07572 59.9834 7.15317 60.1787 7.15317C60.1787 7.15317 75.2813 7.14486 76.4347 7.16308C77.4007 7.17634 77.4935 7.28906 77.5217 8.27336C77.5317 8.57164 77.5217 35.9202 77.5217 35.9202C77.5222 36.1156 77.6 36.3029 77.7382 36.4411C77.8764 36.5793 78.0637 36.6572 78.2591 36.6576H84.3788C84.5742 36.6572 84.7615 36.5793 84.8997 36.4411C85.0379 36.3029 85.1157 36.1156 85.1162 35.9202C85.1162 35.9202 85.1162 15.7485 85.1162 8.54843C85.1162 7.19624 85.1543 7.15815 86.4799 7.15815C88.422 7.15815 102.202 7.18631 102.202 7.18631C102.3 7.18696 102.396 7.16837 102.486 7.13161C102.576 7.09485 102.658 7.04063 102.727 6.97209C102.796 6.90355 102.851 6.82202 102.888 6.73223C102.925 6.64243 102.945 6.54617 102.945 6.44891V1.40969C102.943 1.2138 102.864 1.02651 102.725 0.888451C102.586 0.750395 102.398 0.672722 102.202 0.672294L60.1787 0.63916Z" fill="black"/>
<path d="M54.5678 1.48737C54.5664 1.27655 54.4817 1.07485 54.332 0.9264C54.1823 0.777949 53.9799 0.694872 53.7691 0.695314H47.7654C47.5549 0.69531 47.3529 0.778603 47.2036 0.927007C47.0542 1.07541 46.9697 1.27684 46.9684 1.48737V35.8636C46.9701 36.0742 47.0548 36.2755 47.204 36.4241C47.3532 36.5727 47.5549 36.6565 47.7654 36.6574H53.7691C53.9799 36.657 54.1821 36.5733 54.3316 36.4247C54.4812 36.2761 54.566 36.0745 54.5678 35.8636V1.48737Z" fill="black"/>
<path d="M221.677 0.695313C221.339 0.696619 221.016 0.831034 220.778 1.06937C220.539 1.30771 220.404 1.63067 220.402 1.96794V35.3831C220.404 35.7206 220.538 36.044 220.777 36.2827C221.016 36.5214 221.339 36.6561 221.677 36.6574H226.724C227.062 36.6569 227.386 36.5226 227.626 36.2839C227.865 36.0451 228 35.7212 228.002 35.3831V1.96794C228 1.62996 227.865 1.30628 227.626 1.06775C227.386 0.829227 227.062 0.69531 226.724 0.695313H221.677Z" fill="black"/>
<path d="M160.631 0.695314H154.628C154.389 0.695314 154.222 0.6953 154.024 0.970376C153.827 1.24545 134.423 27.7075 134.423 27.7075C134.423 27.7075 115.017 1.24545 114.821 0.970376C114.626 0.6953 114.457 0.695314 114.22 0.695314H108.221C108.01 0.694872 107.808 0.777949 107.658 0.9264C107.508 1.07485 107.423 1.27655 107.422 1.48737V35.8636C107.424 36.0745 107.509 36.2761 107.658 36.4247C107.808 36.5733 108.01 36.657 108.221 36.6574H114.22C114.43 36.6565 114.632 36.5727 114.781 36.4241C114.93 36.2755 115.015 36.0742 115.017 35.8636V14.5916C115.157 14.7822 115.302 14.9727 115.409 15.1219L130.949 36.3326C131.115 36.5513 131.327 36.664 131.71 36.664H137.135C137.505 36.664 137.742 36.5563 137.901 36.3326L153.436 15.1219C153.544 14.9727 153.69 14.7905 153.829 14.5916V35.8636C153.831 36.0745 153.915 36.2761 154.065 36.4247C154.215 36.5733 154.417 36.657 154.628 36.6574H160.631C160.842 36.6565 161.044 36.5727 161.193 36.4241C161.342 36.2755 161.427 36.0742 161.428 35.8636V1.48737C161.427 1.27684 161.342 1.07541 161.193 0.927007C161.044 0.778603 160.842 0.69531 160.631 0.695314Z" fill="black"/>
<path d="M194.041 1.00879C193.965 0.896148 193.859 0.806026 193.736 0.747764C193.613 0.689501 193.476 0.665211 193.34 0.67737H188.369C188.233 0.665519 188.096 0.689929 187.972 0.748128C187.848 0.806327 187.741 0.896248 187.663 1.00879C187.663 1.00879 164.65 35.0901 164.65 35.8507C164.505 36.4008 164.981 36.6477 165.382 36.6477H172.305C172.414 36.6658 172.526 36.6489 172.625 36.5995C172.724 36.5501 172.805 36.4707 172.855 36.3726C173.038 36.0926 189.975 10.9447 190.212 10.5901L190.851 9.6389L191.491 10.5901C191.73 10.9447 208.662 36.0926 208.844 36.3726C208.896 36.4701 208.976 36.5491 209.075 36.5985C209.174 36.6478 209.285 36.665 209.394 36.6477H216.323C216.724 36.6477 217.199 36.4008 217.055 35.8507C217.055 35.0901 194.036 1.00879 194.036 1.00879H194.041Z" fill="black"/>
<path d="M281.09 0.695314H275.086C274.875 0.694872 274.673 0.777949 274.523 0.9264C274.373 1.07485 274.289 1.27655 274.287 1.48737V25.9493C274.087 25.7836 242.249 1.2123 241.974 1.00185C241.865 0.899948 241.736 0.821033 241.596 0.769794C241.456 0.718556 241.306 0.69603 241.157 0.703567H236.047C235.718 0.703566 235.402 0.834062 235.169 1.06642C234.936 1.29878 234.805 1.61402 234.804 1.94306V35.4245C234.805 35.7537 234.936 36.0691 235.169 36.3017C235.402 36.5344 235.718 36.6652 236.047 36.6656H241.157C241.487 36.6661 241.803 36.5356 242.037 36.3029C242.271 36.0702 242.403 35.7542 242.403 35.4245V10.9825C242.665 11.178 242.937 11.3835 243.133 11.5376L274.526 36.4237C274.599 36.4984 274.686 36.5576 274.782 36.5978C274.878 36.6379 274.982 36.6582 275.086 36.6574H281.09C281.301 36.657 281.503 36.5733 281.652 36.4247C281.802 36.2761 281.887 36.0745 281.888 35.8636V1.48737C281.887 1.27655 281.802 1.07485 281.653 0.9264C281.503 0.777949 281.301 0.694872 281.09 0.695314Z" fill="black"/>
<path fill-rule="evenodd" clip-rule="evenodd" d="M129.287 66.7007H132.873V56.1616L136.295 61.3284C136.486 61.6134 136.655 61.8885 136.855 62.1868C136.981 62.379 137.321 62.9424 137.462 63.0352C137.627 62.9192 139.492 60.0144 139.772 59.5951L142.092 56.1152V66.6957H145.717V50.3237H141.88C141.714 50.3237 140.847 51.8582 140.764 51.9974L139.671 53.7423C139.316 54.3339 138.938 54.9022 138.589 55.4905L137.646 57.0067C137.556 57.1724 137.618 57.1559 137.458 57.1973C137.42 57.02 136.814 56.1103 136.675 55.8965C136.577 55.7474 136.509 55.6065 136.408 55.4541C135.689 54.3438 134.966 53.0795 134.265 52.0123C134.075 51.719 133.897 51.4439 133.718 51.1407C133.649 51.018 133.276 50.3237 133.122 50.3237H129.284L129.287 66.7007Z" fill="black"/>
<path fill-rule="evenodd" clip-rule="evenodd" d="M157.483 66.7008H161.072V56.3672C161.238 56.4749 164.928 61.3799 165.021 61.5042C165.195 61.7329 165.339 61.9151 165.518 62.1388C165.697 62.3625 165.836 62.568 165.998 62.7818L168.721 66.3545C168.82 66.4543 168.9 66.571 168.958 66.6991H172.092V50.3271H168.501V60.3243C168.347 60.2216 165.826 56.861 165.616 56.581C165.45 56.3656 165.312 56.1882 165.145 55.9695L161.307 50.9287C161.228 50.8209 160.911 50.3271 160.785 50.3271H157.483V66.7008Z" fill="black"/>
<path fill-rule="evenodd" clip-rule="evenodd" d="M198.82 58.2843H195.316V53.5799H198.489C199.452 53.5799 200.12 53.681 200.739 54.0356C202.154 54.8426 202.42 58.2843 198.82 58.2843ZM205.87 66.7007C204.824 65.143 203.657 63.5207 202.635 61.978C202.537 61.8371 202.469 61.7443 202.383 61.6002C202.257 61.4129 201.926 61.0252 201.908 60.8263C202.481 60.7783 203.565 59.9447 204.002 59.5007C205.296 58.223 205.684 55.8733 205.184 54.1284C204.977 53.2938 204.538 52.5345 203.919 51.9377C202.527 50.5392 200.646 50.3237 198.617 50.3237H191.693V66.6957H195.321V61.4875H198.159C198.411 61.9681 200.726 65.3303 201.198 66.0378C201.342 66.2582 201.502 66.472 201.623 66.7007H205.87Z" fill="black"/>
<path fill-rule="evenodd" clip-rule="evenodd" d="M176.002 66.7006H188.518V63.6184C188.518 63.5207 188.49 63.4925 188.392 63.4925H179.593V60.0739H187.807V56.9503C187.807 56.8575 187.779 56.8294 187.681 56.8294H179.592V53.5367H188.517V50.3286H176.001L176.002 66.7006Z" fill="black"/>
<path fill-rule="evenodd" clip-rule="evenodd" d="M95.9188 66.7005H97.7532V53.3278L99.0606 54.9849C99.2942 55.2732 99.4898 55.5351 99.7234 55.8134L101.689 58.309C102.772 59.6463 103.898 61.1675 104.98 62.4816L107.631 65.8388C107.762 66.0161 108.233 66.5431 108.276 66.6972H109.815V50.3252H107.981V63.3631C107.815 63.2521 104.9 59.4889 104.461 58.9238L102.529 56.4763C102.406 56.3271 102.318 56.2095 102.197 56.0603C101.361 55.0346 100.466 53.8084 99.629 52.7926C99.4799 52.6103 97.7615 50.4727 97.72 50.3252H95.9271L95.9188 66.7005Z" fill="black"/>
<path fill-rule="evenodd" clip-rule="evenodd" d="M84.3655 52.4081L85.7276 55.5102C86.1668 56.4282 86.6623 57.6777 87.1063 58.5924L88.0343 60.6621H80.6122C80.9437 60.0423 81.6628 58.3173 82.0125 57.5617C82.1782 57.2021 82.3207 56.8889 82.4748 56.521L83.1791 54.9783C83.2586 54.7827 83.3249 54.6336 83.4044 54.4513L84.281 52.5341L84.2959 52.5059L84.3655 52.4081ZM76.0237 66.7005H77.9427L78.289 65.9217C78.3453 65.8106 78.3636 65.7444 78.4149 65.6333C78.5807 65.2787 78.7563 64.9142 78.8955 64.5695L79.8616 62.4153H88.7883C89.0302 62.8727 89.9482 65.0418 90.2067 65.6234C90.2913 65.8156 90.6509 66.5514 90.6641 66.7055H92.709L92.0229 65.181C91.9483 64.9987 91.8688 64.8495 91.7893 64.6639L90.8513 62.6075C90.7668 62.4103 90.7022 62.2612 90.6227 62.0806C90.5846 61.9961 90.5382 61.9149 90.4967 61.8337L88.9838 58.4714C88.891 58.2891 88.8297 58.1251 88.7452 57.9577C88.6607 57.7903 88.5911 57.618 88.5082 57.4457L87.8172 55.888C87.3963 54.9965 86.7849 53.5466 86.412 52.7909L85.4741 50.7262C85.4386 50.6398 85.3976 50.5556 85.3515 50.4743C85.3001 50.3666 85.2869 50.297 85.2405 50.2075H83.4889C83.1724 50.8041 82.4483 52.5274 82.0986 53.2764L80.9271 55.8549C80.8525 56.0372 80.773 56.1863 80.6934 56.3719L76.0237 66.7005Z" fill="black"/>
<path d="M153.441 50.3286H149.809V66.7006H153.441V50.3286Z" fill="black"/>
<path fill-rule="evenodd" clip-rule="evenodd" d="M113.272 52.0354H118.733V66.7006H120.652V52.0354H126.16V50.3286H113.272V52.0354Z" fill="black"/>
</svg>
